<svg xmlns="http://www.w3.org/2000/svg" xmlns:xlink="http://www.w3.org/1999/xlink" id="Layer_1" width="100" height="100" x="0" y="0" enable-background="new 0 0 140 140" version="1.1" viewBox="0 0 140 140" xml:space="preserve"><g><rect width="20" height="10" x="0" y="0" fill="#d9ef90"/><rect width="20" height="10" x="20" y="0" fill="#75c364"/><rect width="20" height="10" x="40" y="0" fill="#22964f"/><rect width="20" height="10" x="60" y="0" fill="#84ca67"/><rect width="20" height="10" x="80" y="0" fill="#9fd66d"/><rect width="20" height="10" x="100" y="0" fill="#8ece68"/><rect width="20" height="10" x="120" y="0" fill="#57b55e"/><rect width="20" height="10" x="0" y="10" fill="#bde37a"/><rect width="20" height="10" x="20" y="10" fill="#8cce68"/><rect width="20" height="10" x="40" y="10" fill="#41aa59"/><rect width="20" height="10" x="60" y="10" fill="#90cf69"/><rect width="20" height="10" x="80" y="10" fill="#86cb67"/><rect width="20" height="10" x="100" y="10" fill="#96d26a"/><rect width="20" height="10" x="120" y="10" fill="#60ba60"/><rect width="20" height="10" x="0" y="20" fill="#fbf5ac"/><rect width="20" height="10" x="20" y="20" fill="#d6ee8e"/><rect width="20" height="10" x="40" y="20" fill="#83ca66"/><rect width="20" height="10" x="60" y="20" fill="#e4f49c"/><rect width="20" height="10" x="80" y="20" fill="#d8ee8f"/><rect width="20" height="10" x="100" y="20" fill="#d5ed8c"/><rect width="20" height="10" x="120" y="20" fill="#d5ed8c"/><rect width="20" height="10" x="0" y="30" fill="#feea9e"/><rect width="20" height="10" x="20" y="30" fill="#dcf094"/><rect width="20" height="10" x="40" y="30" fill="#9ad46b"/><rect width="20" height="10" x="60" y="30" fill="#dff196"/><rect width="20" height="10" x="80" y="30" fill="#e2f399"/><rect width="20" height="10" x="100" y="30" fill="#d9ef91"/><rect width="20" height="10" x="120" y="30" fill="#d1eb89"/><rect width="20" height="10" x="0" y="40" fill="#f78950"/><rect width="20" height="10" x="20" y="40" fill="#f89154"/><rect width="20" height="10" x="40" y="40" fill="#fee698"/><rect width="20" height="10" x="60" y="40" fill="#f7874f"/><rect width="20" height="10" x="80" y="40" fill="#fa9a59"/><rect width="20" height="10" x="100" y="40" fill="#fa9f5c"/><rect width="20" height="10" x="120" y="40" fill="#fcb267"/><rect width="20" height="10" x="0" y="50" fill="#f88c52"/><rect width="20" height="10" x="20" y="50" fill="#fdc777"/><rect width="20" height="10" x="40" y="50" fill="#fdf3a9"/><rect width="20" height="10" x="60" y="50" fill="#fdbd6f"/><rect width="20" height="10" x="80" y="50" fill="#fece7e"/><rect width="20" height="10" x="100" y="50" fill="#fecb7b"/><rect width="20" height="10" x="120" y="50" fill="#fee192"/><rect width="20" height="10" x="0" y="60" fill="#fa9d5a"/><rect width="20" height="10" x="20" y="60" fill="#fee090"/><rect width="20" height="10" x="40" y="60" fill="#eff7a7"/><rect width="20" height="10" x="60" y="60" fill="#fdc474"/><rect width="20" height="10" x="80" y="60" fill="#feeb9f"/><rect width="20" height="10" x="100" y="60" fill="#fdf2a8"/><rect width="20" height="10" x="120" y="60" fill="#f8f7ae"/><rect width="20" height="10" x="0" y="70" fill="#fee99c"/><rect width="20" height="10" x="20" y="70" fill="#f7f8ad"/><rect width="20" height="10" x="40" y="70" fill="#dcf093"/><rect width="20" height="10" x="60" y="70" fill="#fdf1a7"/><rect width="20" height="10" x="80" y="70" fill="#f8f7ae"/><rect width="20" height="10" x="100" y="70" fill="#dcf093"/><rect width="20" height="10" x="120" y="70" fill="#b8e177"/><rect width="20" height="10" x="0" y="80" fill="#c8e882"/><rect width="20" height="10" x="20" y="80" fill="#d5ed8c"/><rect width="20" height="10" x="40" y="80" fill="#eff7a8"/><rect width="20" height="10" x="60" y="80" fill="#faf7ad"/><rect width="20" height="10" x="80" y="80" fill="#d0eb88"/><rect width="20" height="10" x="100" y="80" fill="#b6e076"/><rect width="20" height="10" x="120" y="80" fill="#61ba60"/><rect width="20" height="10" x="0" y="90" fill="#cdea85"/><rect width="20" height="10" x="20" y="90" fill="#b2de74"/><rect width="20" height="10" x="40" y="90" fill="#e2f39a"/><rect width="20" height="10" x="60" y="90" fill="#c6e780"/><rect width="20" height="10" x="80" y="90" fill="#b9e178"/><rect width="20" height="10" x="100" y="90" fill="#9fd66d"/><rect width="20" height="10" x="120" y="90" fill="#3aa657"/><rect width="20" height="10" x="0" y="100" fill="#8dce68"/><rect width="20" height="10" x="20" y="100" fill="#95d16a"/><rect width="20" height="10" x="40" y="100" fill="#e4f39c"/><rect width="20" height="10" x="60" y="100" fill="#98d36b"/><rect width="20" height="10" x="80" y="100" fill="#6ec063"/><rect width="20" height="10" x="100" y="100" fill="#35a356"/><rect width="20" height="10" x="120" y="100" fill="#34a355"/><rect width="20" height="10" x="0" y="110" fill="#7ec765"/><rect width="20" height="10" x="20" y="110" fill="#51b35d"/><rect width="20" height="10" x="40" y="110" fill="#87cb67"/><rect width="20" height="10" x="60" y="110" fill="#62ba61"/><rect width="20" height="10" x="80" y="110" fill="#38a557"/><rect width="20" height="10" x="100" y="110" fill="#20944e"/><rect width="20" height="10" x="120" y="110" fill="#249850"/><rect width="20" height="10" x="0" y="120" fill="#75c364"/><rect width="20" height="10" x="20" y="120" fill="#32a155"/><rect width="20" height="10" x="40" y="120" fill="#41aa59"/><rect width="20" height="10" x="60" y="120" fill="#3ea958"/><rect width="20" height="10" x="80" y="120" fill="#22964f"/><rect width="20" height="10" x="100" y="120" fill="#22964f"/><rect width="20" height="10" x="120" y="120" fill="#249850"/><rect width="20" height="10" x="0" y="130" fill="#45ac5a"/><rect width="20" height="10" x="20" y="130" fill="#2c9e53"/><rect width="20" height="10" x="40" y="130" fill="#44ac5a"/><rect width="20" height="10" x="60" y="130" fill="#44ac5a"/><rect width="20" height="10" x="80" y="130" fill="#2f9f54"/><rect width="20" height="10" x="100" y="130" fill="#198e4b"/><rect width="20" height="10" x="120" y="130" fill="#299b52"/></g></svg>